<svg width="25" height="25" viewBox="0 0 25 25" fill="none" xmlns="http://www.w3.org/2000/svg">
<g clip-path="url(#clip0_12_715)">
<path d="M10.5426 12.487C10.5452 12.5686 10.5221 12.649 10.4766 12.7169L9.5453 14.1137L10.8078 13.6919C10.8851 13.6656 10.9688 13.6642 11.0469 13.688C11.1251 13.7117 11.1938 13.7594 11.2435 13.8242C11.2932 13.8891 11.3213 13.9678 11.3238 14.0495C11.3264 14.1311 11.3033 14.2115 11.2578 14.2794L10.3266 15.6762L11.5891 15.2544L11.8375 15.995L9.49374 16.7762C9.41649 16.802 9.33312 16.803 9.25528 16.779C9.17745 16.7551 9.10905 16.7074 9.05964 16.6427C9.01023 16.578 8.98229 16.4994 8.97971 16.418C8.97714 16.3366 9.00007 16.2565 9.0453 16.1887L9.97499 14.7919L8.71249 15.2137C8.63524 15.2395 8.55187 15.2405 8.47403 15.2165C8.3962 15.1926 8.3278 15.1449 8.27839 15.0802C8.22898 15.0155 8.20104 14.9369 8.19846 14.8555C8.19589 14.7741 8.21882 14.694 8.26405 14.6262L9.19374 13.2294L7.93124 13.6512L7.6828 12.9106L10.0266 12.1294C10.1039 12.1031 10.1875 12.1017 10.2657 12.1255C10.3438 12.1492 10.4126 12.1969 10.4623 12.2617C10.5119 12.3266 10.54 12.4053 10.5426 12.487Z" fill="white"/>
<path fill-rule="evenodd" clip-rule="evenodd" d="M21.3388 21.3388C18.9946 23.683 15.8152 25 12.5 25C9.18479 25 6.00537 23.683 3.66117 21.3388C1.31696 18.9946 0 15.8152 0 12.5C0 9.18479 1.31696 6.00537 3.66117 3.66117C6.00537 1.31696 9.18479 0 12.5 0C15.8152 0 18.9946 1.31696 21.3388 3.66117C23.683 6.00537 25 9.18479 25 12.5C25 15.8152 23.683 18.9946 21.3388 21.3388ZM5.91563 14.9875L2.80938 17.5766C3.84345 19.5443 5.45013 21.1521 7.41719 22.1875L10.0078 19.0781C10.8027 19.3786 11.6455 19.5321 12.4953 19.5312C13.5156 19.5312 14.4844 19.3141 15.3594 18.9219L13.2766 14.0625L11.7141 10.1562L17.6922 7.76406C16.5908 6.55283 15.1013 5.76388 13.4805 5.53327C11.8597 5.30266 10.2092 5.64484 8.81373 6.50081C7.41821 7.35678 6.36513 8.67288 5.83607 10.2222C5.30701 11.7714 5.33515 13.4568 5.91563 14.9875ZM18.8266 15.56C19.2875 14.6058 19.5262 13.5596 19.525 12.5C19.525 12.1766 19.5047 11.8594 19.4625 11.5469L14.8391 13.2812L16.8641 18.0094C17.6948 17.3516 18.3657 16.5141 18.8266 15.56Z" fill="white"/>
</g>
<defs>
<clipPath id="clip0_12_715">
<rect width="25" height="25" fill="white"/>
</clipPath>
</defs>
</svg>
