<svg width="25" height="25" viewBox="0 0 25 25" fill="none" xmlns="http://www.w3.org/2000/svg">
<path d="M0 6.25C0 6.25 0 3.125 3.125 3.125H21.875C21.875 3.125 25 3.125 25 6.25V15.625C25 15.625 25 18.75 21.875 18.75H15.625C15.625 19.7922 15.7547 20.5734 16.0156 21.0938H17.1875C17.3947 21.0938 17.5934 21.1761 17.7399 21.3226C17.8864 21.4691 17.9688 21.6678 17.9688 21.875C17.9688 22.0822 17.8864 22.2809 17.7399 22.4274C17.5934 22.5739 17.3947 22.6562 17.1875 22.6562H7.8125C7.6053 22.6562 7.40659 22.5739 7.26007 22.4274C7.11356 22.2809 7.03125 22.0822 7.03125 21.875C7.03125 21.6678 7.11356 21.4691 7.26007 21.3226C7.40659 21.1761 7.6053 21.0938 7.8125 21.0938H8.98438C9.24531 20.5734 9.375 19.7922 9.375 18.75H3.125C3.125 18.75 0 18.75 0 15.625V6.25ZM2.18438 4.91406C2.01274 5.03356 1.87581 5.19637 1.7875 5.38594C1.65431 5.66113 1.5778 5.96028 1.5625 6.26563V15.625C1.5625 16.1328 1.68437 16.4094 1.78906 16.5656C1.89844 16.7297 2.05469 16.8594 2.26094 16.9625C2.52428 17.0901 2.80964 17.1659 3.10156 17.1859L3.14062 17.1875H21.875C22.3828 17.1875 22.6594 17.0656 22.8156 16.9609C22.9873 16.8414 23.1242 16.6786 23.2125 16.4891C23.3401 16.2257 23.4159 15.9404 23.4359 15.6484L23.4375 15.6094V6.25C23.4375 5.74219 23.3156 5.46563 23.2109 5.30938C23.0915 5.13769 22.9287 5.00075 22.7391 4.9125C22.4639 4.77931 22.1647 4.7028 21.8594 4.6875H3.125C2.61719 4.6875 2.34063 4.80937 2.18438 4.91406Z" fill="#FDEAEA"/>
</svg>
