<svg width="25" height="25" viewBox="0 0 25 25" fill="none" xmlns="http://www.w3.org/2000/svg">
<path d="M14.8438 0C15.051 0 15.2497 0.08231 15.3962 0.228823C15.5427 0.375336 15.625 0.57405 15.625 0.78125C15.625 0.98845 15.7073 1.18716 15.8538 1.33368C16.0003 1.48019 16.199 1.5625 16.4062 1.5625C16.6135 1.5625 16.8122 1.64481 16.9587 1.79132C17.1052 1.93784 17.1875 2.13655 17.1875 2.34375V3.125C17.1875 3.3322 17.1052 3.53091 16.9587 3.67743C16.8122 3.82394 16.6135 3.90625 16.4062 3.90625H8.59375C8.38655 3.90625 8.18784 3.82394 8.04132 3.67743C7.89481 3.53091 7.8125 3.3322 7.8125 3.125V2.34375C7.8125 2.13655 7.89481 1.93784 8.04132 1.79132C8.18784 1.64481 8.38655 1.5625 8.59375 1.5625C8.80095 1.5625 8.99966 1.48019 9.14618 1.33368C9.29269 1.18716 9.375 0.98845 9.375 0.78125C9.375 0.57405 9.45731 0.375336 9.60382 0.228823C9.75034 0.08231 9.94905 0 10.1562 0H14.8438Z" fill="white"/>
<path d="M4.6875 3.90625C4.6875 3.69905 4.76981 3.50034 4.91632 3.35382C5.06284 3.20731 5.26155 3.125 5.46875 3.125H6.25C6.4572 3.125 6.65591 3.04269 6.80243 2.89618C6.94894 2.74966 7.03125 2.55095 7.03125 2.34375C7.03125 2.13655 6.94894 1.93784 6.80243 1.79132C6.65591 1.64481 6.4572 1.5625 6.25 1.5625H5.46875C4.84715 1.5625 4.25101 1.80943 3.81147 2.24897C3.37193 2.68851 3.125 3.28465 3.125 3.90625V22.6562C3.125 23.2779 3.37193 23.874 3.81147 24.3135C4.25101 24.7531 4.84715 25 5.46875 25H19.5312C20.1529 25 20.749 24.7531 21.1885 24.3135C21.6281 23.874 21.875 23.2779 21.875 22.6562V3.90625C21.875 3.28465 21.6281 2.68851 21.1885 2.24897C20.749 1.80943 20.1529 1.5625 19.5312 1.5625H18.75C18.5428 1.5625 18.3441 1.64481 18.1976 1.79132C18.0511 1.93784 17.9688 2.13655 17.9688 2.34375C17.9688 2.55095 18.0511 2.74966 18.1976 2.89618C18.3441 3.04269 18.5428 3.125 18.75 3.125H19.5312C19.7385 3.125 19.9372 3.20731 20.0837 3.35382C20.2302 3.50034 20.3125 3.69905 20.3125 3.90625V22.6562C20.3125 22.8635 20.2302 23.0622 20.0837 23.2087C19.9372 23.3552 19.7385 23.4375 19.5312 23.4375H5.46875C5.26155 23.4375 5.06284 23.3552 4.91632 23.2087C4.76981 23.0622 4.6875 22.8635 4.6875 22.6562V3.90625Z" fill="white"/>
<path d="M8.82257 12.7288C8.96909 12.5823 9.1678 12.5 9.375 12.5H15.625C15.8322 12.5 16.0309 12.5823 16.1774 12.7288C16.3239 12.8753 16.4062 13.074 16.4062 13.2812C16.4062 13.4885 16.3239 13.6872 16.1774 13.8337C16.0309 13.9802 15.8322 14.0625 15.625 14.0625H9.375C9.1678 14.0625 8.96909 13.9802 8.82257 13.8337C8.67606 13.6872 8.59375 13.4885 8.59375 13.2812C8.59375 13.074 8.67606 12.8753 8.82257 12.7288Z" fill="white"/>
</svg>
